<svg width="800" height="800" viewBox="-17.56 0 290.796 290.796" xmlns="http://www.w3.org/2000/svg"><defs><style>.a{fill:#ffffff;}.b{fill:#b5886a;}.c{fill:#211715;}.d{fill:#f4b467;}</style></defs><path class="a" d="M182.17 89.672a8.24 8.24.0 016.59-1.92 7.76 7.76.0 015.58 3.71 11.021 11.021.0 011.15 4.42 32.932 32.932.0 01-3.35 17.44 20.9 20.9.0 01-5.41 7.1c-1.789 1.43-4.808 1.81-7.286 1.8-.582 2.439-1.343 4.562-1.686 5.6-2.125 5.767-15.342 28.21-31 31.69a60.048 60.048.0 01-15.149 2.781 91.455 91.455.0 01-17.623-.68c-10.3-1.46-19.747-8.015-27.549-17.353a56.391 56.391.0 01-10.908-21.7l-.615.154c-3.282.82-5.866-.831-7.7-2.29a20.911 20.911.0 01-5.409-7.1A32.908 32.908.0 0158.453 95.88 10.97 10.97.0 0159.6 91.462a7.766 7.766.0 015.585-3.713 8.226 8.226.0 016.583 1.925s-.051-49.716 54.764-49.716C187.275 39.958 182.17 89.672 182.17 89.672z"/><path class="b" d="M191.505 56.6c-.291-1.867-.6-3.566-.895-5.03C184.89 23.3 156.63.845 127 2.485 97.37.845 69.11 23.3 63.39 51.565c-1.55 7.62-1.36 20.67.05 26.75l2.529 9.362a7.765 7.765.0 017.056 3.54C84.15 82.439 104.17 69.571 114.01 61.109c-.846 5.25-3.852 14.18-.066 13.262 15.812-3.661 30.965-11.045 40.128-22.563 1.932 6.8 5.123 15.989 7.468 20 2.979 5.1 10.93 16.073 18.673 19.552 1.136-.984 1.957-1.692 1.957-1.692a8.24 8.24.0 016.59-1.92 7.942 7.942.0 011.97.563C193.942 79.2 192.944 65.847 191.505 56.6z"/><path class="b" d="M55.873 117.349c.153-.465.327-.925.526-1.376a12.386 12.386.0 014.266-5.21q.516 1.3 1.143 2.562a20.911 20.911.0 005.409 7.1c1.83 1.459 4.414 3.11 7.7 2.29l.614-.157a56.39 56.39.0 0010.909 21.7q1.744 2.09 3.6 3.985c-2.035 5.775-7.226 11.336-12.5 14.507-4.122 2.478-8.366 4.116-13.512 3.5-.931-.111-1.909-.168-2.343-1-.627-1.2 1.339-3.4 2.457-5.554 1.327-2.552.53-6.68-.416-9.4a60.853 60.853.0 00-3.843-7.715 44.528 44.528.0 01-4.658-15.2A23.572 23.572.0 0155.873 117.349z"/><path class="c" d="M57.4 110.362c-5.23 5.314-5.348 13-4.166 19.92a46.488 46.488.0 003.209 10.625c1.363 3.154 3.334 6.013 4.647 9.183.947 2.286 1.956 5.616 1.1 8.064-.887 2.542-3.834 4.752-2.823 7.735 1.163 3.436 6.422 3.081 9.266 2.718a25.1 25.1.0 009.051-3.167A32.428 32.428.0 0092.3 149.031a2.42 2.42.0 00-1.677-2.952 2.451 2.451.0 00-2.952 1.676c-1.919 5.131-6.114 9.592-10.679 12.509a24.306 24.306.0 01-7.232 3.286 15.055 15.055.0 01-3.8.428 14.166 14.166.0 01-1.941-.127c.049.008-.768-.093-.72-.144a.914.914.0 01.615.971q-.03.548.08.0a33.259 33.259.0 001.812-3.054 10.041 10.041.0 001.366-4.179 18.555 18.555.0 00-1.141-7.784 65.613 65.613.0 00-4.085-8.288 41.89 41.89.0 01-3.327-8.8c-1.544-6-2.608-13.967 2.169-18.822 2.169-2.2-1.223-5.6-3.394-3.394z"/><path class="c" d="M177.793 116.989a28.388 28.388.0 01-1.412 7.325c-.255.835-.53 1.664-.811 2.49-.068.2-.139.4-.209.595-.254.721.119-.224-.091.229a64.372 64.372.0 01-3.692 6.809A67.436 67.436.0 01156.9 151.659a27.048 27.048.0 01-10.783 5.536c-3.01.692-1.736 5.321 1.276 4.629 8.213-1.887 15.042-7.907 20.4-14.134A74.2 74.2.0 00179.26 130.4a36.123 36.123.0 003.333-13.407c.1-3.089-4.7-3.085-4.8.0z"/><path class="c" d="M73.467 87.977a10.757 10.757.0 00-11.635-1.664c-4.046 1.884-5.5 5.823-5.815 10.014-.62 8.357 1.955 17.832 7.7 24.094 3.058 3.334 7.235 5.619 11.836 4.608 3.016-.663 1.739-5.291-1.276-4.628-3.259.716-6.273-2.084-8.09-4.468a28.3 28.3.0 01-4.9-11.55 29.542 29.542.0 01-.545-6.267c.03-1.839.059-3.97 1.026-5.594 1.679-2.818 5.9-3.212 8.309-1.151a2.461 2.461.0 003.394.0 2.421 2.421.0 000-3.394z"/><path class="c" d="M70.841 110.282a78.029 78.029.0 006.364 23.859 58.212 58.212.0 0020.859 23.82 38.893 38.893.0 0015.283 5.964 2.479 2.479.0 002.952-1.676 2.417 2.417.0 00-1.676-2.952c-9.325-1.379-17.261-6.793-23.635-13.523A55.282 55.282.0 0177.653 121.2c-.52-2.018-.951-4.058-1.308-6.111q-.243-1.4-.442-2.8c-.1-.678-.143-1.041-.262-2.015a2.475 2.475.0 00-2.4-2.4 2.414 2.414.0 00-2.4 2.4z"/><path class="c" d="M183.867 91.369a5.718 5.718.0 018.222 1c1.075 1.6 1.087 3.893 1.117 5.746A30.142 30.142.0 01188 115.6a10.035 10.035.0 01-3.625 3.453 12.143 12.143.0 01-4.935.755c-3.088.0-3.093 4.8.0 4.8 3.962.0 7.521-.858 10.365-3.744a28.531 28.531.0 006.234-10.656A34.862 34.862.0 00198 97.67c-.129-4.221-1.042-8.262-4.759-10.73a10.7 10.7.0 00-12.764 1.035 2.421 2.421.0 000 3.394 2.449 2.449.0 003.394.0z"/><path class="c" d="M65.755 77.677a51.562 51.562.0 01-1.01-9.912 87.878 87.878.0 01.419-12.053 52.113 52.113.0 017.011-20.367A62.788 62.788.0 01106.51 7.633a56.183 56.183.0 0110.812-2.442c3.89-.458 7.762-.3 11.663-.38A57.161 57.161.0 01151.166 8.96a62.659 62.659.0 0132.5 29.779 64.664 64.664.0 015.776 20.173c1.083 7.652 1.667 15.782.331 23.437a34.441 34.441.0 01-1.355 5.328c-1.011 2.925 3.624 4.182 4.629 1.276 2.719-7.872 2.542-16.719 1.786-24.907-.693-7.505-1.832-15.138-4.576-22.193A66.843 66.843.0 00158.2 6.9 63.918 63.918.0 00134.9.21a56.14 56.14.0 00-6.1-.2c-2.044.047-4.083-.045-6.128.0a60.994 60.994.0 00-12.134 1.523A67.6 67.6.0 0071.086 28.2 60.312 60.312.0 0061.3 49.9a75.191 75.191.0 00-.957 23.971 44.55 44.55.0 00.788 5.087c.681 3.011 5.31 1.737 4.629-1.276z"/><path class="c" d="M151.992 53.271c1.162 3.973 2.453 7.912 3.925 11.781a52.151 52.151.0 004.112 8.9 64.892 64.892.0 0012.508 15.115c2.8 2.411 6 4.664 9.661 5.483 3.009.673 4.294-3.953 1.276-4.628-5.7-1.275-10.417-6.613-14.038-11.025A52.386 52.386.0 01160.9 64.689c-1.625-4.159-3.023-8.41-4.276-12.694-.866-2.959-5.5-1.7-4.629 1.276z"/><path class="c" d="M152.534 49.91a56.988 56.988.0 01-19.607 15.28A83.147 83.147.0 01120.851 70q-3.24 1.02-6.543 1.816c-.267.065-.538.117-.8.191-.529.148.208.1-.007.024a2.14 2.14.0 01.95.56c-.007-.008.222.388.09.152a1.444 1.444.0 01-.077-.349c.115.579.013-.06.016-.179.083-3.369 1.259-6.94 1.845-10.471a2.422 2.422.0 00-4.011-2.335c-4.944 4.236-10.283 8.008-15.586 11.775-6.044 4.294-12.15 8.5-18.145 12.864-2.95 2.147-5.878 4.331-8.708 6.635a2.416 2.416.0 000 3.394 2.455 2.455.0 003.394.0c10.823-8.808 22.762-16.264 33.964-24.6 2.884-2.146 5.745-4.333 8.475-6.673L111.7 60.471c-.622 3.744-1.907 7.469-2.014 11.285a5.286 5.286.0 001.377 4.176c1.744 1.586 4.145.628 6.122.116A84.01 84.01.0 00144.2 64.119 54.911 54.911.0 00155.928 53.3a2.475 2.475.0 000-3.394 2.417 2.417.0 00-3.394.0z"/><path class="a" d="M39.456 238.331c1.37 4.38-3.055 12.708-5.328 14.68a17.943 17.943.0 01-12.481 4.953c-4.89.093-10.7-1.122-14.173-5.14-2.92-3.381-4.352-5.728-5.025-11.86-.312-2.842.842-11.847 3.255-16.249z"/><path class="c" d="M37.142 238.969a5.492 5.492.0 01.127 2.214 16.194 16.194.0 01-.885 3.373 23.434 23.434.0 01-2.829 5.466 3.258 3.258.0 01-.481.634 8.876 8.876.0 01-.643.658 18.011 18.011.0 01-3.247 2.325 15.125 15.125.0 01-6.93 1.905c-4.847.208-10.009-.837-13.294-4.663A16.67 16.67.0 014.8 239.851a35.109 35.109.0 01.759-6.808 25.879 25.879.0 012.218-7.117c1.453-2.724-2.689-5.152-4.144-2.422C1.161 228.136.182 233.955.011 239.161a21.515 21.515.0 004.762 14.16c3.988 4.978 9.932 7.007 16.186 7.047a21.684 21.684.0 009.066-1.785 18.854 18.854.0 006.58-4.7 26.071 26.071.0 004.177-7.437c1.051-2.713 1.808-5.882.988-8.756-.846-2.966-5.479-1.705-4.628 1.276z"/><path class="a" d="M249.957 224.715c2.413 4.4 3.567 13.407 3.255 16.249-.673 6.132-2.1 8.479-5.025 11.86-3.471 4.018-9.283 5.233-14.173 5.14a17.943 17.943.0 01-12.481-4.953c-2.274-1.972-6.7-10.3-5.328-14.68z"/><path class="c" d="M213.891 237.693a13.361 13.361.0 00.649 7.829 28.052 28.052.0 003.421 6.923c3.254 4.677 8.882 7.362 14.463 7.838 6 .512 12.98-.907 17.214-5.486a22.2 22.2.0 006.011-14.341 35.664 35.664.0 00-.789-8.009 30.513 30.513.0 00-2.831-8.943c-1.454-2.727-5.6-.3-4.144 2.422 1.964 3.685 2.722 8.522 2.942 12.731a16.837 16.837.0 01-3.158 11.048 13.5 13.5.0 01-5.372 4.445 19.2 19.2.0 01-6.9 1.405c-4.742.157-9.557-1.262-12.813-4.9a21.374 21.374.0 01-3.08-5.483 19.6 19.6.0 01-1.038-3.54 5.9 5.9.0 01.05-2.664c.849-2.976-3.781-4.246-4.628-1.276z"/><path class="c" d="M115.925 135.509c3.086 3.021 7.982 3.892 12.122 3.889s9.036-.867 12.124-3.889c2.211-2.164-1.184-5.557-3.394-3.394-.1.1-.606.528-.317.3.268-.213-.385.257-.538.35-.27.166-.548.319-.832.462-.19.095-.383.187-.579.272.322-.14-.041.012-.18.063a18.328 18.328.0 01-6.284 1.037 17.917 17.917.0 01-6.174-1c-.018-.007-.725-.293-.293-.105-.164-.071-.325-.148-.485-.227a10.48 10.48.0 01-.924-.507c-.229-.141-.445-.3-.667-.451.6.413-.037-.054-.185-.2-2.209-2.163-5.606 1.228-3.394 3.394z"/><path class="c" d="M127.527 112.612a49.76 49.76.0 011.173 5.368l-.085-.638a3.281 3.281.0 01.02.741l.085-.638a1.75 1.75.0 01-.081.334l.242-.574a1.285 1.285.0 01-.118.215l.376-.486a1.2 1.2.0 01-.176.173l.486-.376a3.321 3.321.0 01-.425.225l.573-.241a3.137 3.137.0 01-.717.209l.638-.086a2.85 2.85.0 01-.672.0l.638.085c-.254-.035-.5-.1-.757-.131a2.655 2.655.0 00-1.849.242 2.4 2.4.0 00-.861 3.284 2.3 2.3.0 001.434 1.1c.546.073 1.076.213 1.631.238a5.149 5.149.0 002.364-.557 3.336 3.336.0 001.872-2.207 5.683 5.683.0 00-.026-2.418c-.292-1.73-.692-3.444-1.137-5.14a2.4 2.4.0 10-4.628 1.276z"/><path class="c" d="M98.956 98.127c-.9 2.914-.312 9.616 5.208 10.186 7.3-.043 7.683-8.146 5.227-11.956C107.381 93.237 101.468 91.94 98.956 98.127z"/><path class="c" d="M156.125 98.127c.9 2.914.312 9.616-5.207 10.186-7.3-.044-7.684-8.147-5.228-11.957C147.7 93.237 153.612 91.94 156.125 98.127z"/><path class="d" d="M125.642 157.926c-14.593-9.78-72.1-20.327-87.286-20.675a1.967 1.967.0 00-2.015 1.966C36.307 157.3 36 245.492 35.9 263a1.987 1.987.0 001.781 1.961c14.257 1.188 74.379 16.755 87.984 23.05a5.58 5.58.0 004.148-.014c13.566-6.39 73.281-22.264 88.124-23.054a1.964 1.964.0 001.824-1.954c-.1-17.545-.407-105.775-.441-123.8a1.93 1.93.0 00-1.921-1.93c-17.254-.124-72.25 11.616-87.609 20.8A4.238 4.238.0 01125.642 157.926z"/><path class="a" d="M42.846 129.17c11.829.6 66.961 9.9 84.859 25.173 19.064-15.423 65.42-24.411 84.186-25.526a1.019 1.019.0 011.074 1.021v7.589C192.2 138.866 144 149.562 129.786 158.066a4.24 4.24.0 01-4.145-.141c-13.67-9.161-65-19-83.914-20.49v-.046c0-2.089.031-5.511.047-7.217A1.013 1.013.0 0142.846 129.17z"/><path class="c" d="M44.127 137.389q0-1.944.02-3.889.008-.811.016-1.624c0-.3.025-.606.008-.907-.049-.916.29-.03-.444.31l-1.212.328a22.22 22.22.0 014.78.364q.7.081 1.4.169l.743.094c.157.02.991.131.427.055q1.8.243 3.59.516c5.824.882 11.62 1.948 17.385 3.149 13.391 2.791 26.827 6.195 39.514 11.375a86.669 86.669.0 018.732 4.126c1.337.734 2.65 1.513 3.921 2.357.561.373 1.114.757 1.655 1.157q.175.129.349.26c.568.428-.357-.29.19.149.271.218.539.438.8.663a2.492 2.492.0 003.394.0 54.345 54.345.0 016.022-4.072c2.442-1.438 4.969-2.728 7.54-3.919a144.846 144.846.0 0117.32-6.555 254.3 254.3.0 0136.634-8.531c2.917-.463 5.243-.793 8.059-1.119q1.859-.216 3.724-.386a18.4 18.4.0 013.526-.205l-1.211-.328c-.86-.407-.373-1.591-.451-.731-.025.275.0.566.0.842V137.5c0 3.088 4.8 3.093 4.8.0v-6.56c0-1.357-.056-2.641-1.146-3.647-1.3-1.2-3.155-.837-4.76-.7-6.217.521-12.408 1.446-18.548 2.54-15.129 2.695-30.278 6.451-44.536 12.25-7.206 2.93-14.276 6.366-20.367 11.263H129.4c-4.772-4.044-10.435-6.858-16.164-9.277A176.819 176.819.0 0091.9 136.1a305.148 305.148.0 00-40.255-8.374c-2.439-.336-4.883-.657-7.338-.859-1.784-.147-3.579-.057-4.543 1.76-.616 1.162-.4 2.76-.409 4.037-.015 1.574-.027 3.148-.028 4.722.0 3.089 4.8 3.094 4.8.0z"/><path class="c" d="M126.853 155.854A54.352 54.352.0 00115 150.418c-5.5-1.972-11.135-3.581-16.789-5.052-12.489-3.249-25.169-5.83-37.9-7.9-5.193-.845-10.406-1.611-15.639-2.155-1.8-.188-3.613-.35-5.425-.428a4.953 4.953.0 00-4.208 1.461 5.421 5.421.0 00-1.1 3.857q-.026 12.078-.069 24.156-.056 17.885-.119 35.769-.063 18.016-.133 36.034-.048 12.473-.108 24.945c0 .581-.027 1.167-.009 1.748a4.465 4.465.0 003.542 4.426c.837.166 1.727.194 2.575.3.4.049-.566-.083.1.014l.543.079q.7.1 1.406.218c4.584.744 9.134 1.706 13.669 2.707 12.073 2.664 24.068 5.712 35.991 8.98 10.112 2.772 20.317 5.557 30.129 9.281q.573.216 1.142.442.285.113.568.228c.109.045.754.314.381.156-.324-.137.5.221.684.3a8.7 8.7.0 002.765.781 9.073 9.073.0 004.722-1.01c.145-.065.292-.128.438-.192l.26-.112c.285-.123-.462.191-.168.072.386-.158.772-.317 1.16-.471 4.15-1.643 8.406-3.025 12.661-4.366 11.789-3.716 23.729-6.977 35.714-10 10.474-2.638 21.046-5.271 31.74-6.865l.619-.091c.237-.034.772-.1.211-.031.423-.055.846-.109 1.269-.156.731-.083 1.462-.13 2.194-.195a4.468 4.468.0 004.331-4.195c.039-.624.008-1.258.0-1.884q-.027-5.136-.048-10.272-.068-15.9-.124-31.8-.069-18.594-.131-37.187-.053-15.777-.1-31.553-.015-5.03-.027-10.06a6.723 6.723.0 00-.544-3.308 4.7 4.7.0 00-4.488-2.231c-2 .02-4 .162-6 .345a287.991 287.991.0 00-35.917 6.079c-12.219 2.709-24.5 5.76-36.232 10.178-2.191.825-4.366 1.709-6.486 2.7-.863.405-1.717.83-2.552 1.29-.893.492-1.645 1-2.655.4-2.66-1.584-5.077 2.564-2.422 4.144a6.666 6.666.0 006 .406c.919-.405 1.775-.967 2.673-1.421a55.307 55.307.0 015.6-2.461c5.251-2.042 10.645-3.717 16.061-5.26a384.212 384.212.0 0138.14-8.719c5.522-.98 10.681-1.8 16.006-2.357 2.1-.222 4.217-.405 6.332-.485q.64-.024 1.282-.034a4.577 4.577.0 00.562.0c-.024.0.309.006.31.0-.056.181-.447-.3-.415-.288-.216-.061.023-.288-.064.025a1.951 1.951.0 000 .432c0 .311.0.622.0.933q.027 12.086.069 24.171.057 17.566.118 35.134.063 17.766.131 35.533.048 12.456.106 24.912.006.926.01 1.852a2.4 2.4.0 000 .37c.07.419-.1.069.083-.013.5-.225.215-.166-.261-.129-1.8.14-3.6.394-5.388.669-4.689.719-9.341 1.683-13.973 2.7-11.993 2.623-23.9 5.684-35.721 8.985-9.881 2.759-19.851 5.548-29.425 9.263q-1.35.523-2.682 1.095c-.313.135-.627.269-.937.411-.1.048-.561.219-.181.092a3.542 3.542.0 01-1.135.2 3.505 3.505.0 01-1.137-.186c.307.1.024.0-.122-.059-.48-.2-.955-.415-1.435-.616q-1.11-.464-2.234-.89c-4.17-1.587-8.43-2.938-12.692-4.249-11.562-3.556-23.255-6.7-34.986-9.647-10.3-2.586-20.656-5.134-31.127-6.924-1.774-.3-3.557-.578-5.346-.776-.125-.013-.778-.163-.864-.086.446-.4.449.965.505.021.037-.618.007-1.249.01-1.868q.027-5.151.048-10.3.068-15.657.123-31.315.068-18.372.129-36.745.051-15.577.1-31.155.015-5.082.027-10.164c0-.3.189-1.566.0-1.774.329.369-.916.241.014.393a11.007 11.007.0 001.151.052c1.862.1 3.72.279 5.573.481q1.688.185 3.372.4l.809.1.546.072c.654.087 1.307.179 1.961.272q4.137.588 8.259 1.279 9.22 1.533 18.373 3.453c11.844 2.475 23.758 5.242 35.156 9.354 1.1.4 2.2.813 3.292 1.251.275.11.548.222.821.335.384.159-.2-.091.32.136.473.206.945.413 1.414.63A34.286 34.286.0 01124.431 160C127.01 161.713 129.417 157.558 126.853 155.854z"/><path class="c" d="M125.562 166.959c0 12.549-.053 25.1-.089 37.646q-.075 25.826-.142 51.651-.024 10.407-.032 20.815c0 3.088 4.8 3.094 4.8.0q0-21.4.089-42.8.069-25.1.142-50.2.021-8.559.032-17.117c0-3.088-4.8-3.094-4.8.0z"/><path class="a" d="M10.737 199.084c1.133-1.458 2.651-3.454 4.209-4.233 4.774-3.9 15.467-2.589 20.526-.9 3.617 1.2 8.2 3.091 10.465 6.211 2.156 2.976 2.357 6.813-2.965 7.678 2.139.977 4.26 2.282 5.262 3.938 1.861 3.076 1.063 6.874-2.511 8.4 3.217 2.055 5.4 9.718-1.768 10.768 2.482 3.821 1.167 6.548-2.142 7.375-2.871.718-7.579-.7-12.415.961-6.029 2.967-11.534 2.636-15.431-.144C7.9 234.8 6.2 226.973 6.155 218.625A46 46 0 017.418 206.3c.586-2.121 1.4-4.815 2.81-6.567C10.387 199.534 10.557 199.315 10.737 199.084z"/><path class="c" d="M44.883 209.857c2.716-.917 4.892-2.924 4.874-5.967a9.885 9.885.0 00-3.261-6.727c-3.657-3.533-9.143-5.513-14.065-6.47-4.857-.944-10.394-1.391-15.156.255-5.084 1.757-9.236 6.449-11.147 11.473-2.322 6.1-2.677 12.943-2.267 19.4.356 5.613 1.6 11.342 5.143 15.848a15.745 15.745.0 0015.49 5.773 21.449 21.449.0 004.8-1.5 13.63 13.63.0 015.126-1.108c2.742-.084 5.691.509 8.367-.3 3.181-.965 5.262-3.668 4.748-7.045-.505-3.312-2.9-5.365-5.893-6.5a30.658 30.658.0 00-9.766-2.033 50.364 50.364.0 00-11.515 1.512c-3.024.622-1.744 5.25 1.276 4.629A55.855 55.855.0 0129.76 229.8a23.257 23.257.0 017.833.983c1.495.424 3.58.743 4.622 2.028a3.383 3.383.0 01.642 1.883c-.064.537-.39.847-1.024 1.113-1.866.783-4.475.224-6.544.225a24.7 24.7.0 00-4.206.35 25.293 25.293.0 00-4.5 1.525c-4.268 1.583-8.951 1.523-12.429-1.7-3.215-2.979-4.619-7.288-5.216-11.526a47.862 47.862.0 01.37-15.966 21.591 21.591.0 012.369-6.873 16.273 16.273.0 014.2-4.758 12.018 12.018.0 014.76-2.053 24.21 24.21.0 016-.268 32.86 32.86.0 0112.364 3.135c2.047.988 4.209 2.231 5.381 4.257a4.516 4.516.0 01.5 1.178c.022.075.108.635.075.3.0.024-.034.758.026.391a2.258 2.258.0 01-.135.488c.148-.341-.259.241-.062.046a2.938 2.938.0 01-1.169.677c-2.912.983-1.663 5.621 1.276 4.628z"/><path class="c" d="M20.232 207.494a29.93 29.93.0 019.084-.474 38.412 38.412.0 018.738 1.5c2.491.769 5.333 1.76 7.292 3.538 1.794 1.63 2.068 4.373-.179 5.719-2.647 1.586-.236 5.737 2.423 4.144a8.08 8.08.0 003.054-10.734c-1.742-3.544-5.84-5.314-9.336-6.614a41.617 41.617.0 00-10.851-2.264 35.337 35.337.0 00-11.5.556c-3 .735-1.728 5.365 1.276 4.628z"/><path class="c" d="M19.279 219.64a49.265 49.265.0 0121.113.6c2.329.586 4.669 1.778 5.543 3.942.771 1.908.608 3.339-1.372 4.21a2.416 2.416.0 00-.861 3.284 2.46 2.46.0 003.283.861c3.4-1.494 4.661-5.082 3.9-8.551a10.955 10.955.0 00-6.8-7.584 37.927 37.927.0 00-11.826-2.229A56.373 56.373.0 0018 215.011a2.423 2.423.0 00-1.676 2.952 2.45 2.45.0 002.952 1.677z"/><path class="a" d="M244.923 199.084c-1.133-1.458-2.65-3.454-4.208-4.233-4.774-3.9-15.467-2.589-20.527-.9-3.616 1.2-8.2 3.091-10.464 6.211-2.156 2.976-2.357 6.813 2.965 7.678-2.139.977-4.26 2.282-5.262 3.938-1.861 3.076-1.063 6.874 2.511 8.4-3.217 2.055-5.4 9.718 1.768 10.768-2.482 3.821-1.167 6.548 2.142 7.375 2.871.718 7.579-.7 12.415.961 6.028 2.967 11.534 2.636 15.431-.144 6.069-4.328 7.766-12.159 7.812-20.507a46 46 0 00-1.263-12.327c-.586-2.121-1.4-4.815-2.81-6.567C245.274 199.534 245.1 199.315 244.923 199.084z"/><path class="c" d="M212.054 205.229a3.533 3.533.0 01-.971-.479c-.12-.1-.338-.426-.26-.244-.2-.464-.156-.371-.109-.879-.028.3.033-.134.039-.164a4.613 4.613.0 01.256-.812A9.4 9.4.0 01215 198.774a31.146 31.146.0 0111.362-3.767c3.584-.492 8-.675 11.257.761 3.531 1.556 6.5 5.406 7.732 9.219a45.074 45.074.0 011.69 16.044c-.213 4.465-1.011 9.117-3.55 12.891a11 11 0 01-10.878 4.928c-2.831-.406-5.244-2-8.038-2.473a45.883 45.883.0 00-8.17-.243 5.677 5.677.0 01-2.742-.415 1.2 1.2.0 01-.848-1.275c.111-1.98 2.047-2.727 3.7-3.227a27.211 27.211.0 018.114-1.463 48.414 48.414.0 019.39 1.35 2.459 2.459.0 002.952-1.677 2.423 2.423.0 00-1.676-2.952 57.97 57.97.0 00-10.243-1.514 30.627 30.627.0 00-9.191 1.447c-2.62.747-5.258 1.81-6.739 4.245a6.689 6.689.0 00.379 7.85c1.856 2.12 4.8 2.487 7.452 2.42 3.259-.081 6.348-.291 9.409 1.024 5.868 2.52 12.453 2.553 17.6-1.548 4.406-3.51 6.578-9.012 7.389-14.447a51.958 51.958.0 00-.569-19.41 21.876 21.876.0 00-3.655-8.508c-.813-1.041-1.6-2.108-2.506-3.074a18.62 18.62.0 00-3.128-2.508c-4.035-2.81-9.778-2.845-14.469-2.325-5.535.614-11.436 2.2-16 5.512-2.362 1.712-4.519 4.1-5 7.085-.567 3.506 1.525 6.044 4.752 7.133 2.933.991 4.192-3.643 1.276-4.628z"/><path class="c" d="M236.705 202.866a35.337 35.337.0 00-11.5-.556 41.609 41.609.0 00-10.851 2.264c-3.5 1.3-7.595 3.07-9.336 6.614a8.08 8.08.0 003.054 10.734c2.657 1.592 5.073-2.557 2.423-4.144-2.245-1.345-1.975-4.089-.179-5.719 1.959-1.778 4.8-2.769 7.292-3.538a38.467 38.467.0 018.738-1.5 29.9 29.9.0 019.084.474c3 .736 4.279-3.891 1.276-4.628z"/><path class="c" d="M237.658 215.011a56.33 56.33.0 00-14.259-.839 37.955 37.955.0 00-11.826 2.229 10.96 10.96.0 00-6.8 7.584c-.76 3.469.5 7.056 3.9 8.551a2.477 2.477.0 003.283-.861 2.418 2.418.0 00-.861-3.284c-1.979-.87-2.15-2.284-1.372-4.21.874-2.165 3.215-3.353 5.543-3.942a49.155 49.155.0 0121.113-.6 2.463 2.463.0 002.952-1.677 2.422 2.422.0 00-1.676-2.952z"/></svg>